<svg width="3296" height="869" viewBox="0 0 3296 869" fill="none" xmlns="http://www.w3.org/2000/svg">
<mask id="mask0_220_121" style="mask-type:luminance" maskUnits="userSpaceOnUse" x="0" y="0" width="3465" height="1087">
<path d="M3464.35 0H0V1086.48H3464.35V0Z" fill="white"/>
</mask>
<g mask="url(#mask0_220_121)">
<path d="M694.682 489.504C717.238 489.504 735.545 501.907 735.545 520.513V582.533V706.572V768.592C735.545 784.095 717.238 799.601 694.682 799.601H653.818V737.581V551.524V489.504H694.682Z" fill="#321437"/>
<path d="M694.682 799.602C717.238 799.602 735.545 784.097 735.545 768.593V706.574V644.554H653.818V737.583V799.602H694.682Z" fill="white"/>
<path d="M204.318 489.504C181.749 489.504 163.455 501.907 163.455 520.513V582.533V706.572V768.592C163.455 784.095 181.749 799.601 204.318 799.601H245.182V737.581V551.524V489.504H204.318Z" fill="#321437"/>
<path d="M40.8643 365.465V430.585C16.9027 436.787 0 452.292 0 473.999C0 498.808 27.4448 520.515 61.2955 520.515H63.8504L163.455 650.754V567.029L112.376 498.805C118.983 492.603 122.591 483.303 122.591 473.999C122.591 452.292 105.69 436.787 81.7287 430.585V365.465H40.8643Z" fill="black"/>
<path d="M245.182 458.495V520.513V768.591V830.611H286.046H306.478C340.328 830.611 367.773 808.904 367.773 784.097V722.077V706.572V644.552V582.533V567.029V505.009C367.773 477.1 340.328 458.495 306.478 458.495H286.046H245.182Z" fill="black"/>
<path d="M245.497 830.13V768.11V644.071H368.088V706.09V721.596V783.614C368.088 808.423 340.644 830.13 306.793 830.13H286.362H245.497Z" fill="#321437"/>
<path d="M286.046 458.495H204.318V830.611H286.046V458.495Z" fill="white"/>
<path d="M653.818 458.495V520.513V768.591V830.611H612.955H592.522C558.688 830.611 531.227 808.904 531.227 784.097V722.077V706.572V644.552V582.533V567.029V505.009C531.227 477.1 558.688 458.495 592.522 458.495H612.955H653.818Z" fill="black"/>
<path d="M653.818 830.613V768.593V644.554H531.227V706.574V722.079V784.097C531.227 808.906 558.688 830.613 592.522 830.613H612.955H653.818Z" fill="#321437"/>
<path d="M612.956 458.495H694.682V830.611H612.956V458.495Z" fill="white"/>
<path d="M204.318 799.602C181.749 799.602 163.455 784.097 163.455 768.593V706.574V644.554H245.182V737.583V799.602H204.318Z" fill="white"/>
<path d="M286.046 644.554H204.318V830.613H286.046V644.554Z" fill="white"/>
<path d="M694.683 644.554H612.954V830.613H694.683V644.554Z" fill="white"/>
<path d="M858.136 365.465V430.585C882.082 436.787 899 452.292 899 473.999C899 498.808 871.538 520.515 837.704 520.515H835.17L735.544 650.754V567.029L786.624 498.805C780.005 492.603 776.409 483.303 776.409 473.999C776.409 452.292 793.327 436.787 817.271 430.585V365.465H858.136Z" fill="black"/>
<path d="M81.7286 473.999C81.7286 478.111 79.5757 482.056 75.7434 484.963C71.9111 487.871 66.7146 489.504 61.2955 489.504C55.8782 489.504 50.6798 487.871 46.8495 484.963C43.0172 482.056 40.8643 478.111 40.8643 473.999C40.8643 469.887 43.0172 465.943 46.8495 463.036C50.6798 460.128 55.8782 458.495 61.2955 458.495C66.7146 458.495 71.9111 460.128 75.7434 463.036C79.5757 465.943 81.7286 469.887 81.7286 473.999Z" fill="#C14DD4"/>
<path d="M858.136 473.999C858.136 478.111 855.983 482.056 852.152 484.963C848.32 487.871 843.124 489.504 837.704 489.504C832.285 489.504 827.089 487.871 823.257 484.963C819.426 482.056 817.273 478.111 817.273 473.999C817.273 469.887 819.426 465.943 823.257 463.036C827.089 460.128 832.285 458.495 837.704 458.495C843.124 458.495 848.32 460.128 852.152 463.036C855.983 465.943 858.136 469.887 858.136 473.999Z" fill="#C14DD4"/>
<path d="M408.706 42.5076C255.13 38.5698 104.889 156.707 33.4041 333.909C19.1568 392.979 91.6209 420.54 107.732 365.41C168.79 227.585 288.263 140.954 408.706 140.954H486.69C607.139 140.954 726.61 227.585 787.674 365.41C803.777 420.54 876.225 392.979 861.992 333.909C790.52 156.707 640.282 38.5698 486.69 42.5076H408.706Z" fill="black"/>
<path d="M408.663 101.97C260.164 101.97 115.713 212.115 41.4784 377.333C59.354 400.936 96.2588 400.936 107.348 361.597C168.475 227.85 288.083 141.308 408.663 141.308H486.737C607.321 141.308 726.929 227.85 788.059 361.597C799.145 400.936 836.035 400.936 853.915 377.333C779.705 212.115 635.231 101.97 486.737 101.97H408.663Z" fill="#321437"/>
<path d="M969.333 742.072V688.74C982.704 698.537 996.335 706.518 1010.23 712.685C1024.29 718.672 1036.1 721.665 1045.65 721.665C1055.55 721.665 1064.06 719.126 1071.18 714.045C1078.3 708.967 1081.86 702.891 1081.86 695.815C1081.86 688.56 1079.51 682.573 1074.82 677.856C1070.31 672.958 1060.41 665.976 1045.13 656.905C1014.57 639.126 994.512 623.98 984.961 611.464C975.584 598.766 970.896 584.979 970.896 570.104C970.896 550.876 978.015 535.184 992.254 523.03C1006.67 510.876 1025.16 504.8 1047.74 504.8C1071.18 504.8 1095.23 511.693 1119.89 525.48V574.458C1091.75 556.681 1068.75 547.793 1050.86 547.793C1041.66 547.793 1034.19 549.879 1028.46 554.051C1022.9 558.041 1020.12 563.392 1020.12 570.104C1020.12 575.908 1022.64 581.442 1027.68 586.703C1032.89 591.963 1041.92 598.312 1054.77 605.75L1071.7 615.818C1111.64 639.4 1131.61 665.52 1131.61 694.182C1131.61 714.681 1123.88 731.551 1108.42 744.793C1093.14 757.854 1073.43 764.385 1049.3 764.385C1035.06 764.385 1022.38 762.843 1011.27 759.76C1000.16 756.494 986.177 750.598 969.333 742.072ZM1179.38 549.424L1268.46 457.999V509.698H1344.26V554.322H1268.46V677.041C1268.46 705.701 1279.83 720.032 1302.58 720.032C1319.6 720.032 1337.57 714.045 1356.5 702.073V748.332C1338.27 759.033 1318.38 764.385 1296.85 764.385C1275.14 764.385 1257.09 757.765 1242.67 744.522C1238.16 740.53 1234.42 736.087 1231.47 731.189C1228.52 726.11 1226 719.579 1223.92 711.597C1222.01 703.435 1221.05 688.015 1221.05 665.34V554.322H1179.38V549.424ZM1621.5 639.217H1452.98C1454.19 663.163 1461.83 682.211 1475.9 696.359C1490.14 710.508 1508.46 717.584 1530.86 717.584C1562.12 717.584 1590.94 707.425 1617.34 687.109V735.543C1602.75 745.702 1588.25 752.957 1573.84 757.311C1559.6 761.664 1542.84 763.841 1523.56 763.841C1497.17 763.841 1475.81 758.127 1459.49 746.699C1443.17 735.27 1430.06 719.941 1420.16 700.714C1410.43 681.304 1405.57 658.9 1405.57 633.504C1405.57 595.409 1415.9 564.481 1436.57 540.717C1457.23 516.771 1484.06 504.8 1517.05 504.8C1548.83 504.8 1574.18 516.409 1593.11 539.629C1612.04 562.848 1621.5 593.958 1621.5 632.959V639.217ZM1454.02 609.558H1574.62C1573.4 589.786 1567.76 574.549 1557.69 563.845C1547.62 553.142 1534.07 547.793 1517.05 547.793C1500.04 547.793 1486.06 553.142 1475.12 563.845C1464.35 574.549 1457.32 589.786 1454.02 609.558ZM1700.79 379.905H1748.2V760.031H1700.79V379.905ZM1844.67 379.905H1892.08V760.031H1844.67V379.905ZM2138.07 609.558V715.951C2138.07 724.477 2140.85 728.74 2146.41 728.74C2152.14 728.74 2161.08 724.295 2173.23 715.407V745.611C2162.47 752.866 2153.79 757.765 2147.19 760.304C2140.76 763.025 2133.99 764.385 2126.87 764.385C2106.55 764.385 2094.57 756.041 2090.92 739.353C2070.78 755.679 2049.34 763.841 2026.59 763.841C2009.92 763.841 1996.03 758.127 1984.91 746.699C1973.8 735.089 1968.24 720.576 1968.24 703.162C1968.24 687.38 1973.63 673.322 1984.39 660.986C1995.33 648.47 2010.79 638.582 2030.76 631.327L2091.45 609.558V596.226C2091.45 566.114 2077.03 551.056 2048.21 551.056C2022.33 551.056 1997.15 565.025 1972.67 592.961V538.813C1991.08 516.138 2017.56 504.8 2052.11 504.8C2077.99 504.8 2098.74 511.875 2114.37 526.024C2119.58 530.558 2124.26 536.636 2128.43 544.254C2132.6 551.692 2135.21 559.22 2136.25 566.838C2137.46 574.276 2138.07 588.516 2138.07 609.558ZM2091.45 710.508V636.225L2059.67 649.014C2043.52 655.726 2032.06 662.528 2025.29 669.421C2018.69 676.133 2015.39 684.568 2015.39 694.727C2015.39 705.068 2018.51 713.503 2024.76 720.032C2031.19 726.563 2039.44 729.829 2049.51 729.829C2064.62 729.829 2078.6 723.389 2091.45 710.508ZM2292.63 509.698V567.111L2295.24 562.757C2318.16 524.118 2341.08 504.8 2364 504.8C2381.89 504.8 2400.56 514.232 2420.01 533.097L2395 576.635C2378.5 560.309 2363.22 552.145 2349.16 552.145C2333.88 552.145 2320.59 559.764 2309.3 575.002C2298.19 590.239 2292.63 608.289 2292.63 629.15V760.031H2244.97V509.698H2292.63ZM2676.41 578.268V760.031H2628.75V620.714C2628.75 592.961 2625.19 573.642 2618.07 562.757C2610.95 551.692 2598.53 546.16 2580.82 546.16C2570.92 546.16 2561.81 548.517 2553.47 553.233C2545.31 557.95 2535.93 566.294 2525.34 578.268V760.031H2477.93V509.698H2525.34V542.621C2549.48 517.407 2573.09 504.8 2596.19 504.8C2626.58 504.8 2650.11 519.855 2666.78 549.968C2692.13 519.493 2718.61 504.255 2746.22 504.255C2769.49 504.255 2788.59 513.144 2803.53 530.922C2818.62 548.699 2826.18 575.817 2826.18 612.279V760.031H2778.77V611.735C2778.77 590.875 2774.7 574.911 2766.54 563.845C2758.38 552.78 2746.66 547.248 2731.37 547.248C2711.75 547.248 2693.43 557.587 2676.41 578.268ZM2942.72 404.393C2950.53 404.393 2957.21 407.206 2962.78 412.829C2968.33 418.453 2971.12 425.347 2971.12 433.509C2971.12 441.491 2968.33 448.384 2962.78 454.189C2957.21 459.994 2950.53 462.895 2942.72 462.895C2935.43 462.895 2928.99 459.994 2923.45 454.189C2917.88 448.202 2915.11 441.308 2915.11 433.509C2915.11 425.891 2917.88 419.178 2923.45 413.373C2928.99 407.388 2935.43 404.393 2942.72 404.393ZM2919.28 509.698H2966.69V760.031H2919.28V509.698ZM3227.53 509.698H3288.22L3189.49 632.959L3295.24 760.031H3234.55L3159.28 670.239L3088.17 760.031H3028.52L3129.32 632.959L3028.52 509.698H3088.17L3159.28 595.682L3227.53 509.698Z" fill="white"/>
</g>
</svg>
