<svg width="899" height="663" viewBox="0 0 899 663" fill="none" xmlns="http://www.w3.org/2000/svg">
<mask id="mask0_223_2" style="mask-type:luminance" maskUnits="userSpaceOnUse" x="0" y="-206" width="3465" height="1087">
<path d="M3464.35 -206H0V880.476H3464.35V-206Z" fill="white"/>
</mask>
<g mask="url(#mask0_223_2)">
<path d="M616.596 354.466C631.048 354.466 642.778 362.413 642.778 374.335V414.073V493.548V533.286C642.778 543.22 631.048 553.155 616.596 553.155H590.413V513.417V394.204V354.466H616.596Z" fill="#321437"/>
<path d="M616.596 553.156C631.048 553.156 642.778 543.221 642.778 533.287V493.549V453.812H590.413V513.418V553.156H616.596Z" fill="white"/>
<path d="M302.404 354.466C287.943 354.466 276.222 362.413 276.222 374.335V414.073V493.548V533.286C276.222 543.22 287.943 553.155 302.404 553.155H328.587V513.417V394.204V354.466H302.404Z" fill="#321437"/>
<path d="M197.674 274.99V316.715C182.321 320.688 171.491 330.623 171.491 344.531C171.491 360.427 189.076 374.336 210.765 374.336H212.402L276.222 457.784V404.139L243.494 360.425C247.728 356.452 250.039 350.493 250.039 344.531C250.039 330.623 239.21 320.688 223.857 316.715V274.99H197.674Z" fill="black"/>
<path d="M328.587 334.598V374.335V533.286V573.024H354.77H367.861C389.55 573.024 407.135 559.116 407.135 543.221V503.483V493.548V453.81V414.072V404.139V364.401C407.135 346.518 389.55 334.598 367.861 334.598H354.77H328.587Z" fill="black"/>
<path d="M328.789 572.715V532.977V453.501H407.337V493.239V503.174V542.911C407.337 558.807 389.752 572.715 368.063 572.715H354.972H328.789Z" fill="#321437"/>
<path d="M354.77 334.598H302.404V573.024H354.77V334.598Z" fill="white"/>
<path d="M590.413 334.598V374.335V533.286V573.024H564.231H551.139C529.46 573.024 511.865 559.116 511.865 543.221V503.483V493.548V453.81V414.072V404.139V364.401C511.865 346.518 529.46 334.598 551.139 334.598H564.231H590.413Z" fill="black"/>
<path d="M590.413 573.025V533.287V453.812H511.865V493.549V503.484V543.221C511.865 559.117 529.46 573.025 551.139 573.025H564.231H590.413Z" fill="#321437"/>
<path d="M564.231 334.598H616.596V573.024H564.231V334.598Z" fill="white"/>
<path d="M302.404 553.156C287.943 553.156 276.222 543.221 276.222 533.287V493.549V453.812H328.587V513.418V553.156H302.404Z" fill="white"/>
<path d="M354.77 453.812H302.404V573.025H354.77V453.812Z" fill="white"/>
<path d="M616.596 453.812H564.23V573.025H616.596V453.812Z" fill="white"/>
<path d="M721.326 274.99V316.715C736.669 320.688 747.509 330.623 747.509 344.531C747.509 360.427 729.913 374.336 708.235 374.336H706.611L642.778 457.784V404.139L675.506 360.425C671.265 356.452 668.961 350.493 668.961 344.531C668.961 330.623 679.801 320.688 695.143 316.715V274.99H721.326Z" fill="black"/>
<path d="M223.857 344.531C223.857 347.166 222.478 349.694 220.022 351.557C217.567 353.42 214.237 354.466 210.765 354.466C207.294 354.466 203.963 353.42 201.509 351.557C199.054 349.694 197.674 347.166 197.674 344.531C197.674 341.897 199.054 339.37 201.509 337.507C203.963 335.644 207.294 334.598 210.765 334.598C214.237 334.598 217.567 335.644 220.022 337.507C222.478 339.37 223.857 341.897 223.857 344.531Z" fill="#C14DD4"/>
<path d="M721.326 344.531C721.326 347.166 719.946 349.694 717.492 351.557C715.037 353.42 711.707 354.466 708.235 354.466C704.763 354.466 701.433 353.42 698.978 351.557C696.523 349.694 695.144 347.166 695.144 344.531C695.144 341.897 696.523 339.37 698.978 337.507C701.433 335.644 704.763 334.598 708.235 334.598C711.707 334.598 715.037 335.644 717.492 337.507C719.946 339.37 721.326 341.897 721.326 344.531Z" fill="#C14DD4"/>
<path d="M433.362 68.0612C334.961 65.5381 238.697 141.232 192.894 254.771C183.766 292.619 230.196 310.278 240.518 274.955C279.64 186.646 356.19 131.139 433.362 131.139H483.329C560.504 131.139 637.053 186.646 676.179 274.955C686.497 310.278 732.916 292.619 723.797 254.771C678.002 141.232 581.74 65.5381 483.329 68.0612H433.362Z" fill="black"/>
<path d="M433.334 106.161C338.186 106.161 245.632 176.734 198.068 282.595C209.521 297.718 233.167 297.718 240.272 272.512C279.439 186.816 356.075 131.366 433.334 131.366H483.359C560.621 131.366 637.257 186.816 676.426 272.512C683.529 297.718 707.165 297.718 718.621 282.595C671.073 176.734 578.504 106.161 483.359 106.161H433.334Z" fill="#321437"/>
</g>
</svg>
